<svg id="Calque_1" data-name="Calque 1" xmlns="http://www.w3.org/2000/svg" viewBox="0 0 46.42 37.75"><defs><style>.cls-1,.cls-2,.cls-3,.cls-4,.cls-5,.cls-6,.cls-7,.cls-8{fill:none;stroke-miterlimit:10;}.cls-1{stroke:#596e84;}.cls-2,.cls-3,.cls-4,.cls-5,.cls-6,.cls-7,.cls-8{stroke:#579361;}.cls-3{stroke-dasharray:2.14 2.14;}.cls-4{stroke-dasharray:2.05 2.05;}.cls-5{stroke-dasharray:2.11 2.11;}.cls-6{stroke-dasharray:2.45 2.45;}.cls-7{stroke-dasharray:2.08 2.08;}.cls-8{stroke-dasharray:2.16 2.16;}</style></defs><title>construction</title><path class="cls-1" d="M705,1804a14,14,0,0,0-18,0" transform="translate(-677.75 -1791.45)"/><path class="cls-1" d="M682.42,1811.19a14,14,0,1,0,27.35,1.27" transform="translate(-677.75 -1791.45)"/><polyline class="cls-2" points="1.43 16.62 0.71 15.93 1.42 15.22"/><line class="cls-3" x1="2.93" y1="13.71" x2="5.21" y2="11.44"/><polyline class="cls-2" points="5.96 10.68 6.67 9.97 7.38 10.68"/><line class="cls-4" x1="8.83" y1="12.13" x2="16.82" y2="20.12"/><polyline class="cls-2" points="17.54 20.85 18.25 21.55 18.96 20.85"/><line class="cls-5" x1="20.45" y1="19.35" x2="37.64" y2="2.16"/><polyline class="cls-2" points="38.39 1.41 39.1 0.71 39.8 1.41"/><line class="cls-6" x1="41.54" y1="3.15" x2="44.14" y2="5.75"/><polyline class="cls-2" points="45.01 6.62 45.71 7.33 45.01 8.03"/><line class="cls-7" x1="43.53" y1="9.51" x2="20.69" y2="32.35"/><polyline class="cls-2" points="19.95 33.09 19.24 33.8 18.52 33.1"/><line class="cls-8" x1="16.97" y1="31.6" x2="2.21" y2="17.37"/></svg>